<svg width="195" height="42" viewBox="0 0 195 42" fill="none" xmlns="http://www.w3.org/2000/svg">
<path d="M39.6376 33.1044H20.9014V13.4652C20.9014 13.4652 21.3739 13.4736 21.6154 13.8201C21.9493 14.2989 26.3089 20.6493 27.781 22.806C28.0309 23.1714 28.5265 23.2701 28.8982 23.0286L29.0536 22.9257C29.4064 22.6968 29.5009 22.2201 29.2615 21.8736L26.6722 18.1272C26.6092 18.0348 26.5231 17.9571 26.4202 17.9151C26.3215 17.8731 26.2144 17.8605 26.0926 17.8815C26.0926 17.8815 25.9183 17.2998 26.5882 16.9218C26.6995 16.8588 26.8087 16.8315 26.9116 16.8315C27.4219 16.8294 27.7957 17.4741 27.7957 17.4741L29.0788 19.2486L38.6527 32.4912C38.6506 32.4912 39.1147 33.0603 39.6376 33.1044Z" fill="url(#paint0_linear_22_739)"/>
<path d="M20.9011 13.4652V33.1044H2.66895C2.78025 33.0498 2.87895 32.97 2.95665 32.865C4.49595 30.7839 9.33854 24.1458 11.7493 20.8404C11.7493 20.8404 12.1315 20.5779 12.5494 20.8278C12.7216 20.9307 12.8161 21.1323 12.7804 21.3297C12.7804 21.3318 12.7783 21.336 12.7783 21.3381L10.0042 25.0908C9.93285 25.1874 9.88455 25.2945 9.85934 25.4037C9.78585 25.725 9.90555 26.0736 10.189 26.2773L10.3549 26.397C10.798 26.7162 11.4175 26.607 11.7262 26.1576C11.8333 26.0022 19.8532 14.301 20.1871 13.8222C20.4286 13.4736 20.9011 13.4652 20.9011 13.4652Z" fill="url(#paint1_linear_22_739)"/>
<path d="M27.9196 33.1044H20.9014V23.0622C20.9014 23.0622 21.1975 23.0727 21.2521 23.2155C21.2794 23.3226 21.3277 23.4276 21.3928 23.5263L27.9196 33.1044Z" fill="url(#paint2_linear_22_739)"/>
<path d="M30.1622 33.1233L23.5808 23.2869L22.9949 22.4091C22.7114 21.9849 22.1444 21.8547 21.7055 22.1151C21.2141 22.407 21.0692 23.0538 21.3926 23.5263L27.9299 33.1233H30.1622Z" fill="#160B5C"/>
<path d="M32.7725 33.1044L29.4146 28.1757C29.0933 27.7032 29.2361 27.0564 29.7275 26.7645C30.1664 26.5041 30.7334 26.6322 31.0169 27.0564L31.6028 27.9363L35.0594 33.1023L32.7725 33.1044Z" fill="#160B5C"/>
<path d="M29.0555 22.9299L28.9001 23.0328C28.5284 23.2743 28.0328 23.1756 27.7829 22.8102C26.3087 20.6535 24.5237 18.039 23.0747 15.9348C22.9676 15.7773 21.9491 14.3031 21.6173 13.8243C21.3758 13.4778 20.9033 13.4694 20.9033 13.4694C20.9033 13.4694 20.4308 13.4778 20.1893 13.8243C19.8554 14.3031 11.8376 26.0043 11.7284 26.1597C11.4176 26.6091 10.8002 26.7183 10.3571 26.3991L10.1912 26.2794C9.90564 26.0757 9.78804 25.7271 9.86154 25.4058C9.88674 25.2966 9.93504 25.1895 10.0064 25.0929L12.7805 21.3402C12.7805 21.3381 12.7826 21.3339 12.7826 21.3318C12.8183 21.1344 12.7259 20.9328 12.5516 20.8299C12.1337 20.58 11.7515 20.8425 11.7515 20.8425C9.34074 24.15 4.49814 30.7881 2.95884 32.8671C2.88114 32.9721 2.78034 33.054 2.67114 33.1065C2.41074 33.2346 2.09154 33.2136 1.84374 33.0288C1.51824 32.7852 1.34814 32.4114 1.34814 32.0334C1.34814 31.7772 1.42794 31.5189 1.58964 31.2963C3.48804 28.7217 8.53644 21.8001 10.6091 18.9546C10.9808 18.4443 11.5478 18.2973 12.0938 18.4674C12.2933 18.5304 12.476 18.6375 12.623 18.7845C12.7574 18.9189 12.8582 19.0722 12.9065 19.2528C12.9065 19.2528 13.0913 19.3725 13.3391 19.0659C13.4315 18.9525 14.3702 17.5917 15.5105 15.9306C17.4299 13.1334 19.9247 9.48359 19.9247 9.48359C19.9247 9.48359 20.2376 8.81369 20.9033 8.81369C21.569 8.81369 21.8819 9.48359 21.8819 9.48359C21.8819 9.48359 24.3767 13.1334 26.2961 15.9306C26.5103 16.2435 26.7182 16.5438 26.9135 16.8294C26.8106 16.8294 26.7014 16.8567 26.5901 16.9197C25.9202 17.2977 26.0945 17.8794 26.0945 17.8794C26.2163 17.8605 26.3255 17.8731 26.4221 17.913C26.525 17.955 26.6111 18.0327 26.6741 18.1251L29.2634 21.8715C29.5028 22.2243 29.4083 22.6989 29.0555 22.9299Z" fill="#160B5C"/>
<path d="M40.5427 32.3316C40.5427 32.3316 40.5427 32.8692 39.9169 33.0729C39.8245 33.1023 39.73 33.1107 39.6376 33.1044C39.1147 33.0603 38.6506 32.4912 38.6506 32.4912L29.0767 19.2486C29.1292 18.9252 29.272 18.6354 29.5849 18.4968C30.5341 18.0705 31.2334 18.8895 31.2334 18.8895C31.2334 18.8895 39.6985 30.3387 40.1794 31.08C40.6582 31.8234 40.5427 32.3316 40.5427 32.3316Z" fill="#160B5C"/>
<path d="M55.1867 9.08H66.0017C68.685 9.08 70.7734 9.73333 72.2667 11.04C73.76 12.3233 74.5067 14.085 74.5067 16.325C74.5067 18.565 73.7484 20.3383 72.2317 21.645C70.7384 22.9517 68.6617 23.605 66.0017 23.605H59.7017V34H55.1867V9.08ZM65.4767 20.105C67.04 20.105 68.2184 19.79 69.0117 19.16C69.8284 18.5067 70.2367 17.5733 70.2367 16.36C70.2367 15.1233 69.84 14.19 69.0467 13.56C68.2534 12.9067 67.0634 12.58 65.4767 12.58H59.7017V20.105H65.4767ZM78.1822 16.325H82.5222V34H78.1822V16.325ZM82.7672 8.31V12.615H77.9022V8.31H82.7672ZM97.4232 15.87C101.647 15.87 103.758 18.2967 103.758 23.15V34H99.3832V23.36C99.3832 21.96 99.1149 20.945 98.5782 20.315C98.0416 19.6617 97.2132 19.335 96.0932 19.335C94.7632 19.335 93.6899 19.7667 92.8732 20.63C92.0566 21.47 91.6482 22.59 91.6482 23.99V34H87.3082V21.33C87.3082 19.4633 87.2149 17.795 87.0282 16.325H91.1232L91.4382 19.23C92.0449 18.1567 92.8616 17.3283 93.8882 16.745C94.9382 16.1617 96.1166 15.87 97.4232 15.87ZM118.512 15.87C122.735 15.87 124.847 18.2967 124.847 23.15V34H120.472V23.36C120.472 21.96 120.204 20.945 119.667 20.315C119.13 19.6617 118.302 19.335 117.182 19.335C115.852 19.335 114.779 19.7667 113.962 20.63C113.145 21.47 112.737 22.59 112.737 23.99V34H108.397V21.33C108.397 19.4633 108.304 17.795 108.117 16.325H112.212L112.527 19.23C113.134 18.1567 113.95 17.3283 114.977 16.745C116.027 16.1617 117.205 15.87 118.512 15.87ZM146.391 16.325V34H142.086V31.165C141.549 32.145 140.779 32.915 139.776 33.475C138.773 34.0117 137.629 34.28 136.346 34.28C134.806 34.28 133.441 33.9067 132.251 33.16C131.061 32.4133 130.139 31.3517 129.486 29.975C128.833 28.5983 128.506 27 128.506 25.18C128.506 23.36 128.833 21.75 129.486 20.35C130.163 18.9267 131.096 17.83 132.286 17.06C133.476 16.2667 134.829 15.87 136.346 15.87C137.629 15.87 138.773 16.15 139.776 16.71C140.779 17.2467 141.549 18.005 142.086 18.985V16.325H146.391ZM137.536 30.85C138.983 30.85 140.103 30.3483 140.896 29.345C141.689 28.3417 142.086 26.93 142.086 25.11C142.086 23.2433 141.689 21.8083 140.896 20.805C140.103 19.8017 138.971 19.3 137.501 19.3C136.054 19.3 134.923 19.825 134.106 20.875C133.313 21.9017 132.916 23.3367 132.916 25.18C132.916 27 133.313 28.4 134.106 29.38C134.923 30.36 136.066 30.85 137.536 30.85ZM159.171 34.28C157.328 34.28 155.729 33.9067 154.376 33.16C153.023 32.4133 151.984 31.3633 151.261 30.01C150.538 28.6333 150.176 27.0233 150.176 25.18C150.176 23.3367 150.549 21.715 151.296 20.315C152.066 18.915 153.139 17.83 154.516 17.06C155.916 16.2667 157.526 15.87 159.346 15.87C160.606 15.87 161.819 16.0683 162.986 16.465C164.176 16.8617 165.121 17.41 165.821 18.11L164.596 21.19C163.849 20.5833 163.056 20.1283 162.216 19.825C161.376 19.4983 160.548 19.335 159.731 19.335C158.144 19.335 156.908 19.8367 156.021 20.84C155.134 21.82 154.691 23.2433 154.691 25.11C154.691 26.9767 155.123 28.4 155.986 29.38C156.873 30.36 158.121 30.85 159.731 30.85C160.548 30.85 161.376 30.6867 162.216 30.36C163.056 30.0333 163.849 29.5667 164.596 28.96L165.821 32.04C165.074 32.74 164.106 33.2883 162.916 33.685C161.726 34.0817 160.478 34.28 159.171 34.28ZM168.758 8.24H173.098V34H168.758V8.24ZM194.614 16.325L186.389 35.19C185.456 37.3833 184.266 38.9817 182.819 39.985C181.373 40.9883 179.588 41.6533 177.464 41.98L176.484 38.62C178.141 38.2467 179.378 37.7683 180.194 37.185C181.034 36.625 181.711 35.785 182.224 34.665L182.784 33.37L175.434 16.325H180.019L185.094 29.03L190.274 16.325H194.614Z" fill="#1D1233"/>
<defs>
<linearGradient id="paint0_linear_22_739" x1="30.2697" y1="29.9883" x2="30.2697" y2="16.7254" gradientUnits="userSpaceOnUse">
<stop stop-color="#B973FA"/>
<stop offset="0.0154482" stop-color="#BB75FA"/>
<stop offset="0.3116" stop-color="#D79CFA"/>
<stop offset="0.5842" stop-color="#ECB8FA"/>
<stop offset="0.8224" stop-color="#F9C9FA"/>
<stop offset="1" stop-color="#FDCFFA"/>
</linearGradient>
<linearGradient id="paint1_linear_22_739" x1="11.7766" y1="33.1658" x2="14.3959" y2="14.3071" gradientUnits="userSpaceOnUse">
<stop stop-color="#2F14AA"/>
<stop offset="0.4836" stop-color="#8355D5"/>
<stop offset="0.8314" stop-color="#B87EF1"/>
<stop offset="1" stop-color="#CD8EFC"/>
</linearGradient>
<linearGradient id="paint2_linear_22_739" x1="24.4107" y1="33.1036" x2="24.4107" y2="23.1161" gradientUnits="userSpaceOnUse">
<stop stop-color="#612BD1"/>
<stop offset="0.0131473" stop-color="#622CD1"/>
<stop offset="0.6767" stop-color="#9756E8"/>
<stop offset="1" stop-color="#AC66F1"/>
</linearGradient>
</defs>
</svg>
