<svg width="132" height="40" viewBox="0 0 132 40" fill="none" xmlns="http://www.w3.org/2000/svg">
<path d="M33.9751 30.3752H17.9155V13.5416C17.9155 13.5416 18.3205 13.5488 18.5275 13.8458C18.8137 14.2562 22.5505 19.6994 23.8123 21.548C24.0265 21.8612 24.4513 21.9458 24.7699 21.7388L24.9031 21.6506C25.2055 21.4544 25.2865 21.0458 25.0813 20.7488L22.8619 17.5376C22.8079 17.4584 22.7341 17.3918 22.6459 17.3558C22.5613 17.3198 22.4695 17.309 22.3651 17.327C22.3651 17.327 22.2157 16.8284 22.7899 16.5044C22.8853 16.4504 22.9789 16.427 23.0671 16.427C23.5045 16.4252 23.8249 16.9778 23.8249 16.9778L24.9247 18.4988L33.1309 29.8496C33.1291 29.8496 33.5269 30.3374 33.9751 30.3752Z" fill="url(#paint0_linear_2002_36)"/>
<path d="M17.9157 13.5416V30.3752H2.28809C2.38349 30.3284 2.46809 30.26 2.53469 30.17C3.85409 28.3862 8.00489 22.6964 10.0713 19.8632C10.0713 19.8632 10.3989 19.6382 10.7571 19.8524C10.9047 19.9406 10.9857 20.1134 10.9551 20.2826C10.9551 20.2844 10.9533 20.288 10.9533 20.2898L8.57549 23.5064C8.51429 23.5892 8.47289 23.681 8.45129 23.7746C8.38829 24.05 8.49089 24.3488 8.73389 24.5234L8.87609 24.626C9.25589 24.8996 9.78689 24.806 10.0515 24.4208C10.1433 24.2876 17.0175 14.258 17.3037 13.8476C17.5107 13.5488 17.9157 13.5416 17.9157 13.5416Z" fill="url(#paint1_linear_2002_36)"/>
<path d="M23.9311 30.3752H17.9155V21.7676C17.9155 21.7676 18.1693 21.7766 18.2161 21.899C18.2395 21.9908 18.2809 22.0808 18.3367 22.1654L23.9311 30.3752Z" fill="url(#paint2_linear_2002_36)"/>
<path d="M25.8535 30.3914L20.2123 21.9602L19.7101 21.2078C19.4671 20.8442 18.9811 20.7326 18.6049 20.9558C18.1837 21.206 18.0595 21.7604 18.3367 22.1654L23.9401 30.3914H25.8535Z" fill="#160B5C"/>
<path d="M28.091 30.3752L25.2128 26.1506C24.9374 25.7456 25.0598 25.1912 25.481 24.941C25.8572 24.7178 26.3432 24.8276 26.5862 25.1912L27.0884 25.9454L30.0512 30.3734L28.091 30.3752Z" fill="#160B5C"/>
<path d="M24.905 21.6542L24.7718 21.7424C24.4532 21.9494 24.0284 21.8648 23.8142 21.5516C22.5506 19.703 21.0206 17.462 19.7786 15.6584C19.6868 15.5234 18.8138 14.2598 18.5294 13.8494C18.3224 13.5524 17.9174 13.5452 17.9174 13.5452C17.9174 13.5452 17.5124 13.5524 17.3054 13.8494C17.0192 14.2598 10.1468 24.2894 10.0532 24.4226C9.78676 24.8078 9.25756 24.9014 8.87776 24.6278L8.73556 24.5252C8.49076 24.3506 8.38996 24.0518 8.45296 23.7764C8.47456 23.6828 8.51596 23.591 8.57716 23.5082L10.955 20.2916C10.955 20.2898 10.9568 20.2862 10.9568 20.2844C10.9874 20.1152 10.9082 19.9424 10.7588 19.8542C10.4006 19.64 10.073 19.865 10.073 19.865C8.00656 22.7 3.85576 28.3898 2.53636 30.1718C2.46976 30.2618 2.38336 30.332 2.28976 30.377C2.06656 30.4868 1.79296 30.4688 1.58056 30.3104C1.30156 30.1016 1.15576 29.7812 1.15576 29.4572C1.15576 29.2376 1.22416 29.0162 1.36276 28.8254C2.98996 26.6186 7.31716 20.6858 9.09376 18.2468C9.41236 17.8094 9.89836 17.6834 10.3664 17.8292C10.5374 17.8832 10.694 17.975 10.82 18.101C10.9352 18.2162 11.0216 18.3476 11.063 18.5024C11.063 18.5024 11.2214 18.605 11.4338 18.3422C11.513 18.245 12.3176 17.0786 13.295 15.6548C14.9402 13.2572 17.0786 10.1288 17.0786 10.1288C17.0786 10.1288 17.3468 9.5546 17.9174 9.5546C18.488 9.5546 18.7562 10.1288 18.7562 10.1288C18.7562 10.1288 20.8946 13.2572 22.5398 15.6548C22.7234 15.923 22.9016 16.1804 23.069 16.4252C22.9808 16.4252 22.8872 16.4486 22.7918 16.5026C22.2176 16.8266 22.367 17.3252 22.367 17.3252C22.4714 17.309 22.565 17.3198 22.6478 17.354C22.736 17.39 22.8098 17.4566 22.8638 17.5358L25.0832 20.747C25.2884 21.0494 25.2074 21.4562 24.905 21.6542Z" fill="#160B5C"/>
<path d="M34.7509 29.7128C34.7509 29.7128 34.7509 30.1736 34.2145 30.3482C34.1353 30.3734 34.0543 30.3806 33.9751 30.3752C33.5269 30.3374 33.1291 29.8496 33.1291 29.8496L24.9229 18.4988C24.9679 18.2216 25.0903 17.9732 25.3585 17.8544C26.1721 17.489 26.7715 18.191 26.7715 18.191C26.7715 18.191 34.0273 28.0046 34.4395 28.64C34.8499 29.2772 34.7509 29.7128 34.7509 29.7128Z" fill="#160B5C"/>
<path d="M44.0607 28V12.49H50.9467C52.6481 12.49 53.9461 12.9007 54.8407 13.722C55.7354 14.5433 56.1827 15.6727 56.1827 17.11C56.1827 18.5327 55.7354 19.662 54.8407 20.498C53.9461 21.334 52.6481 21.752 50.9467 21.752H46.8987V28H44.0607ZM46.8987 19.508H50.6167C51.5554 19.508 52.2594 19.3027 52.7287 18.892C53.1981 18.4667 53.4327 17.8727 53.4327 17.11C53.4327 16.3473 53.1981 15.7607 52.7287 15.35C52.2594 14.9247 51.5554 14.712 50.6167 14.712H46.8987V19.508ZM58.4931 28V16.89H61.2431V28H58.4931ZM58.3391 14.8V12.116H61.3971V14.8H58.3391ZM64.2294 28V19.662C64.2294 19.2073 64.2147 18.7453 64.1854 18.276C64.1561 17.8067 64.1121 17.3447 64.0534 16.89H66.7154L66.9354 19.09H66.6714C67.0234 18.3127 67.5441 17.7187 68.2334 17.308C68.9227 16.8827 69.7221 16.67 70.6314 16.67C71.9367 16.67 72.9194 17.0367 73.5794 17.77C74.2394 18.5033 74.5694 19.6473 74.5694 21.202V28H71.8194V21.334C71.8194 20.4393 71.6434 19.8013 71.2914 19.42C70.9541 19.024 70.4407 18.826 69.7514 18.826C68.9007 18.826 68.2261 19.09 67.7274 19.618C67.2287 20.146 66.9794 20.85 66.9794 21.73V28H64.2294ZM77.4853 28V19.662C77.4853 19.2073 77.4706 18.7453 77.4413 18.276C77.4119 17.8067 77.3679 17.3447 77.3093 16.89H79.9713L80.1913 19.09H79.9273C80.2793 18.3127 80.7999 17.7187 81.4893 17.308C82.1786 16.8827 82.9779 16.67 83.8873 16.67C85.1926 16.67 86.1753 17.0367 86.8353 17.77C87.4953 18.5033 87.8253 19.6473 87.8253 21.202V28H85.0753V21.334C85.0753 20.4393 84.8993 19.8013 84.5473 19.42C84.2099 19.024 83.6966 18.826 83.0073 18.826C82.1566 18.826 81.4819 19.09 80.9833 19.618C80.4846 20.146 80.2353 20.85 80.2353 21.73V28H77.4853ZM95.0311 28.22C94.0631 28.22 93.2125 27.9927 92.4791 27.538C91.7458 27.0687 91.1738 26.4013 90.7631 25.536C90.3525 24.6707 90.1471 23.6367 90.1471 22.434C90.1471 21.2313 90.3525 20.2047 90.7631 19.354C91.1738 18.4887 91.7458 17.8287 92.4791 17.374C93.2125 16.9047 94.0631 16.67 95.0311 16.67C95.9698 16.67 96.7911 16.9047 97.4951 17.374C98.2138 17.8287 98.6905 18.4447 98.9251 19.222H98.6831L98.9251 16.89H101.565C101.521 17.3447 101.477 17.8067 101.433 18.276C101.404 18.7453 101.389 19.2073 101.389 19.662V28H98.6611L98.6391 25.712H98.9031C98.6685 26.4747 98.1918 27.0833 97.4731 27.538C96.7545 27.9927 95.9405 28.22 95.0311 28.22ZM95.8011 26.108C96.6665 26.108 97.3631 25.8073 97.8911 25.206C98.4191 24.59 98.6831 23.666 98.6831 22.434C98.6831 21.202 98.4191 20.2853 97.8911 19.684C97.3631 19.0827 96.6665 18.782 95.8011 18.782C94.9358 18.782 94.2391 19.0827 93.7111 19.684C93.1831 20.2853 92.9191 21.202 92.9191 22.434C92.9191 23.666 93.1758 24.59 93.6891 25.206C94.2171 25.8073 94.9211 26.108 95.8011 26.108ZM109.488 28.22C108.344 28.22 107.339 27.9853 106.474 27.516C105.623 27.0467 104.963 26.3793 104.494 25.514C104.024 24.634 103.79 23.5927 103.79 22.39C103.79 21.1873 104.024 20.1607 104.494 19.31C104.978 18.4593 105.645 17.8067 106.496 17.352C107.346 16.8973 108.344 16.67 109.488 16.67C110.221 16.67 110.932 16.7873 111.622 17.022C112.326 17.242 112.898 17.5647 113.338 17.99L112.502 19.904C112.106 19.5373 111.658 19.266 111.16 19.09C110.676 18.8993 110.199 18.804 109.73 18.804C108.747 18.804 107.977 19.112 107.42 19.728C106.877 20.344 106.606 21.2387 106.606 22.412C106.606 23.5853 106.877 24.4873 107.42 25.118C107.977 25.7487 108.747 26.064 109.73 26.064C110.184 26.064 110.654 25.976 111.138 25.8C111.636 25.624 112.091 25.3527 112.502 24.986L113.338 26.878C112.883 27.3033 112.304 27.6333 111.6 27.868C110.91 28.1027 110.206 28.22 109.488 28.22ZM115.47 28V11.808H118.22V28H115.47ZM120.986 32.994L120.348 30.816C121.037 30.6693 121.617 30.5007 122.086 30.31C122.555 30.1193 122.944 29.87 123.252 29.562C123.56 29.254 123.817 28.858 124.022 28.374L124.572 27.076L124.506 28.154L119.666 16.89H122.592L126.068 25.558H125.43L128.928 16.89H131.7L126.64 28.616C126.303 29.408 125.936 30.0607 125.54 30.574C125.144 31.102 124.719 31.52 124.264 31.828C123.809 32.1507 123.311 32.4 122.768 32.576C122.225 32.752 121.631 32.8913 120.986 32.994Z" fill="#1D1233"/>
<defs>
<linearGradient id="paint0_linear_2002_36" x1="25.9455" y1="27.7043" x2="25.9455" y2="16.3361" gradientUnits="userSpaceOnUse">
<stop stop-color="#B973FA"/>
<stop offset="0.0154482" stop-color="#BB75FA"/>
<stop offset="0.3116" stop-color="#D79CFA"/>
<stop offset="0.5842" stop-color="#ECB8FA"/>
<stop offset="0.8224" stop-color="#F9C9FA"/>
<stop offset="1" stop-color="#FDCFFA"/>
</linearGradient>
<linearGradient id="paint1_linear_2002_36" x1="10.0946" y1="30.4279" x2="12.3397" y2="14.2632" gradientUnits="userSpaceOnUse">
<stop stop-color="#2F14AA"/>
<stop offset="0.4836" stop-color="#8355D5"/>
<stop offset="0.8314" stop-color="#B87EF1"/>
<stop offset="1" stop-color="#CD8EFC"/>
</linearGradient>
<linearGradient id="paint2_linear_2002_36" x1="20.9235" y1="30.3745" x2="20.9235" y2="21.8138" gradientUnits="userSpaceOnUse">
<stop stop-color="#612BD1"/>
<stop offset="0.0131473" stop-color="#622CD1"/>
<stop offset="0.6767" stop-color="#9756E8"/>
<stop offset="1" stop-color="#AC66F1"/>
</linearGradient>
</defs>
</svg>
